<svg width="229" height="240" viewBox="0 0 229 240" fill="none" xmlns="http://www.w3.org/2000/svg">
<mask id="mask0" mask-type="alpha" maskUnits="userSpaceOnUse" x="0" y="0" width="229" height="240">
<rect width="229" height="240" rx="6" fill="#C4C4C4"/>
</mask>
<g mask="url(#mask0)">
<rect width="229" height="240" rx="6" fill="#795548"/>
<circle cx="114" cy="299" r="176" fill="#FFC107"/>
<path d="M24.3485 172.621H20.3301L16 211.858C16 211.858 16.2771 218.614 21.4733 223.514C26.6695 228.414 29.4408 236.64 28.8519 243.395C28.2976 250.15 26.6002 257.571 26.6002 263.976C26.6002 270.381 26.6002 324.634 26.6002 324.634C26.6002 324.634 27.3277 331.53 33.4245 331.53C39.5213 331.53 40.2488 324.634 40.2488 324.634C40.2488 324.634 40.2488 269.401 40.2488 263.766C40.2488 258.131 37.2697 247.665 37.2697 243.57C37.2697 239.475 38.101 231.109 44.4057 224.424C50.7104 217.739 51.1954 213.538 50.9529 210.633C50.7104 207.728 46.3803 172.621 46.3803 172.621H42.743L44.094 215.358L39.3481 215.323V172.621H35.4683V215.323H31.4846V172.621L27.9512 172.586V215.008H23.1361L24.3485 172.621Z" fill="white"/>
<path d="M195.541 250.557C193.679 242.847 192.941 233.771 196.138 229.251C204.007 226.903 213 216.215 213 201.286C213 186.463 204.956 172.832 190.693 172.586H190.342C176.045 172.832 168.035 186.463 168 201.251C168 216.215 177.028 226.868 184.862 229.251C188.34 234.122 187.145 244.389 184.932 252.484L183.281 261.981C183.281 276.524 183.281 321.694 183.281 321.694C183.281 321.729 183.281 321.799 183.246 321.834C183.281 325.514 186.232 328.492 189.92 328.492C190.131 328.492 190.834 328.492 191.009 328.492C194.698 328.492 197.684 325.514 197.684 321.834C197.684 321.799 197.684 321.729 197.684 321.729C197.684 321.729 197.684 279.818 197.684 263.733L195.541 250.557Z" fill="white"/>
</g>
<path d="M29.42 38L24.18 24.66H21.26L16.02 38H18.68L19.66 35.44H25.78L26.76 38H29.42ZM25.12 33.38H20.32L22.72 27.02L25.12 33.38ZM36.017 38.24C38.517 38.24 40.297 36.34 40.297 33.16C40.297 29.98 38.517 28.1 36.017 28.1C34.757 28.1 33.637 28.7 32.917 29.66V28.34H30.817V41.68H32.917V36.66C33.697 37.7 34.797 38.24 36.017 38.24ZM35.397 36.38C34.417 36.38 33.377 35.78 32.917 35.08V31.26C33.377 30.54 34.417 29.96 35.397 29.96C37.057 29.96 38.117 31.3 38.117 33.16C38.117 35.04 37.057 36.38 35.397 36.38ZM47.5795 38.24C50.0795 38.24 51.8595 36.34 51.8595 33.16C51.8595 29.98 50.0795 28.1 47.5795 28.1C46.3195 28.1 45.1995 28.7 44.4795 29.66V28.34H42.3795V41.68H44.4795V36.66C45.2595 37.7 46.3595 38.24 47.5795 38.24ZM46.9595 36.38C45.9795 36.38 44.9395 35.78 44.4795 35.08V31.26C44.9395 30.54 45.9795 29.96 46.9595 29.96C48.6195 29.96 49.6795 31.3 49.6795 33.16C49.6795 35.04 48.6195 36.38 46.9595 36.38ZM58.402 38.24C59.942 38.24 61.362 37.76 62.322 36.84L61.362 35.46C60.682 36.14 59.562 36.52 58.622 36.52C56.802 36.52 55.702 35.32 55.542 33.86H63.002V33.36C63.002 30.32 61.142 28.1 58.242 28.1C55.382 28.1 53.342 30.36 53.342 33.16C53.342 36.22 55.502 38.24 58.402 38.24ZM60.962 32.38H55.522C55.622 31.2 56.442 29.82 58.242 29.82C60.142 29.82 60.922 31.24 60.962 32.38ZM67.9748 38.24C68.9548 38.24 69.5748 37.98 69.9548 37.62L69.4548 36.04C69.2948 36.22 68.9148 36.38 68.5148 36.38C67.9148 36.38 67.5948 35.9 67.5948 35.24V30.18H69.5548V28.34H67.5948V25.7H65.4948V28.34H63.8948V30.18H65.4948V35.76C65.4948 37.36 66.3548 38.24 67.9748 38.24ZM72.5016 27.16C73.2216 27.16 73.8016 26.58 73.8016 25.86C73.8016 25.14 73.2216 24.56 72.5016 24.56C71.8016 24.56 71.2016 25.14 71.2016 25.86C71.2016 26.58 71.8016 27.16 72.5016 27.16ZM73.5616 38V28.34H71.4616V38H73.5616ZM83.5058 38V36.18H78.6058L83.4258 29.88V28.34H75.8458V30.18H80.6258L75.8458 36.42V38H83.5058ZM90.2575 38.24C91.7975 38.24 93.2175 37.76 94.1775 36.84L93.2175 35.46C92.5375 36.14 91.4175 36.52 90.4775 36.52C88.6575 36.52 87.5575 35.32 87.3975 33.86H94.8575V33.36C94.8575 30.32 92.9975 28.1 90.0975 28.1C87.2375 28.1 85.1975 30.36 85.1975 33.16C85.1975 36.22 87.3575 38.24 90.2575 38.24ZM92.8175 32.38H87.3775C87.4775 31.2 88.2975 29.82 90.0975 29.82C91.9975 29.82 92.7775 31.24 92.8175 32.38ZM99.0303 38V31.42C99.4503 30.74 100.63 30.14 101.51 30.14C101.77 30.14 101.99 30.16 102.17 30.2V28.12C100.91 28.12 99.7503 28.84 99.0303 29.76V28.34H96.9303V38H99.0303Z" fill="white"/>
</svg>
