<svg width="229" height="240" viewBox="0 0 229 240" fill="none" xmlns="http://www.w3.org/2000/svg">
<mask id="mask0" mask-type="alpha" maskUnits="userSpaceOnUse" x="0" y="0" width="229" height="240">
<rect width="229" height="240" rx="6" fill="#0A0809"/>
</mask>
<g mask="url(#mask0)">
<rect width="229" height="240" rx="6" fill="#462D8A"/>
<path d="M249 144.108H113.042V280H249V144.108Z" fill="#462D8A"/>
<path d="M193.375 215.727C191.646 215.808 189.916 215.997 188.16 215.997C184.917 215.997 181.702 215.943 178.459 215.781C174.352 215.566 170.272 215.323 166.192 214.918C162.084 214.541 157.95 214.056 153.87 213.462C151.249 213.085 148.655 212.465 146.061 211.871C144.034 211.413 141.71 211.224 141.089 209.256C140.467 207.26 140.737 204.133 141.251 202.029C141.845 199.522 142.44 197.014 143.277 194.587C144.007 192.457 144.845 190.327 145.953 188.385C147.601 185.473 149.438 182.669 151.384 179.945C152.465 178.381 153.816 176.979 155.194 175.658C158.004 173.015 161.112 170.831 164.597 169.078C169.326 166.732 174.271 166.382 179.297 167.002C182.431 167.38 185.431 168.485 188.322 169.941C192.537 172.098 196.131 174.903 199.131 178.516C201.833 181.779 204.021 185.338 205.535 189.302C206.643 192.214 207.642 195.126 207.994 198.227C208.129 199.522 208.345 200.816 208.669 202.083C208.804 202.569 209.183 203.108 209.615 203.377C210.317 203.836 211.128 204.24 211.939 204.375C213.965 204.753 215.992 205.13 218.018 205.265C221.666 205.508 225.314 205.535 228.989 205.723C231.61 205.858 234.231 205.966 236.825 206.317C238.176 206.505 239.582 206.991 240.77 207.638C241.905 208.258 241.77 209.714 240.554 210.2C238.717 210.928 236.825 211.494 234.907 211.952C232.556 212.492 230.124 212.869 227.746 213.274C227.017 213.408 226.26 213.462 225.53 213.516C221.504 213.84 218.154 214.595 213.452 214.541C208.48 214.487 203.616 215.134 198.698 215.323C196.942 215.377 195.185 215.7 193.429 215.916C193.402 215.916 193.402 215.808 193.375 215.727ZM203.94 202.757C204.021 202.757 204.13 202.757 204.211 202.73C204.292 202.515 204.4 202.299 204.427 202.083C204.643 199.522 203.724 197.149 203.292 194.695C203.13 193.832 202.914 192.969 202.589 192.16C201.644 189.868 200.644 187.576 199.59 185.311C198.32 182.588 196.672 180.08 194.591 177.869C192.618 175.739 190.268 174.121 187.728 172.8C186.025 171.937 184.134 171.316 182.296 170.777C180.675 170.319 178.973 170.13 177.324 169.887C177.081 169.86 176.811 170.13 176.541 170.265C176.73 170.481 176.892 170.777 177.135 170.885C180.378 172.287 183.674 173.501 186.836 175.038C190.862 177.006 194.078 179.999 196.347 183.855C197.78 186.282 199.022 188.817 200.184 191.378C200.941 192.996 201.454 194.749 201.995 196.448C202.4 197.742 202.697 199.09 203.076 200.411C203.292 201.22 203.643 201.975 203.94 202.757Z" fill="white"/>
<path d="M159.139 218.154C162.057 218.559 165.273 218.747 168.353 219.475C170.461 219.988 172.406 221.201 174.46 222.091C174.919 222.307 175.433 222.495 175.946 222.522C177.135 222.576 178.378 222.388 179.54 222.576C181.107 222.819 182.296 222.145 183.593 221.498C185.323 220.635 187.133 219.853 188.97 219.394C193.213 218.343 197.536 218.208 201.887 218.586C204.886 218.855 207.939 219.044 210.723 220.203C211.749 220.635 212.668 221.525 213.317 222.415C213.776 223.035 214.1 223.358 214.884 223.358C216.83 223.385 216.83 223.412 216.83 225.354C216.83 226.459 216.802 227.565 216.83 228.643C216.83 229.533 216.424 230.073 215.478 230.019C214.506 229.965 214.208 230.45 214.127 231.367C213.803 236.167 212.29 240.535 209.399 244.445C208.48 245.685 207.102 245.982 205.832 246.359C202.914 247.249 199.86 247.573 196.807 247.519C193.456 247.465 190.132 247.114 187.079 245.631C186.133 245.173 185.323 244.202 184.701 243.285C181.891 239.187 180.594 234.576 180.378 229.641C180.324 227.996 178.405 227.133 177.027 228.077C176.757 228.266 176.622 228.724 176.541 229.075C175.973 231.933 175.622 234.872 174.838 237.677C174.082 240.373 172.731 242.854 170.731 244.876C170.11 245.523 169.137 245.955 168.245 246.224C166.759 246.683 165.219 247.141 163.706 247.222C161.057 247.384 158.382 247.519 155.734 247.222C153.329 246.952 150.897 246.359 148.682 245.442C147.574 244.984 146.763 243.501 146.061 242.342C143.926 238.836 142.737 235.034 142.683 230.908C142.683 230.18 142.278 229.965 141.656 230.046C140.548 230.18 140.197 229.614 140.224 228.616C140.251 227.187 140.224 225.785 140.224 224.356C140.224 223.628 140.467 223.17 141.278 223.197C142.386 223.25 143.115 222.873 143.737 221.902C144.737 220.284 146.52 219.691 148.249 219.421C151.789 218.882 155.302 218.586 159.139 218.154ZM158.896 223.52C158.896 223.412 158.869 223.304 158.869 223.197C156.058 223.574 153.275 223.952 150.465 224.329C148.898 224.545 148.195 225.3 148.006 226.864C147.655 229.533 147.817 232.176 148.601 234.737C149.141 236.436 149.844 238.108 150.627 239.699C150.978 240.373 151.654 241.101 152.357 241.344C153.816 241.829 155.356 242.207 156.896 242.315C159.139 242.449 161.436 242.422 163.679 242.207C165.273 242.045 166.948 241.667 167.894 240.103C168.596 238.917 169.272 237.704 169.785 236.436C170.947 233.551 171.109 230.531 170.947 227.457C170.92 226.972 170.731 226.297 170.38 226.082C169.299 225.435 168.164 224.841 166.975 224.41C164.381 223.466 161.652 223.331 158.896 223.52ZM185.701 229.291C185.701 232.472 186.43 235.142 188.133 238.836C189.079 240.885 190.7 241.856 192.808 242.18C195.699 242.611 198.617 242.719 201.508 242.18C203.022 241.883 204.751 241.856 205.751 240.373C206.453 239.321 207.102 238.216 207.588 237.056C208.858 233.902 208.912 230.558 208.777 227.241C208.723 226.001 208.48 224.787 207.021 224.437C205.913 224.167 204.805 223.871 203.697 223.79C198.347 223.331 193.024 222.927 187.89 225.165C186.403 225.812 185.728 226.513 185.728 228.131C185.701 228.536 185.701 228.913 185.701 229.291Z" fill="white"/>
<path d="M186.917 215.997C186.917 215.997 233.177 216.644 240.743 210.253C245.634 206.128 224.45 207.988 224.45 207.988L188.214 212.68L186.917 215.997Z" fill="white"/>
<path d="M23.82 38.24C26.52 38.24 28.16 36.84 29.18 35.24L27.18 34.22C26.54 35.34 25.26 36.16 23.82 36.16C21.18 36.16 19.22 34.14 19.22 31.34C19.22 28.54 21.18 26.52 23.82 26.52C25.26 26.52 26.54 27.36 27.18 28.46L29.18 27.44C28.18 25.84 26.52 24.44 23.82 24.44C19.88 24.44 16.82 27.24 16.82 31.34C16.82 35.44 19.88 38.24 23.82 38.24ZM38.9928 38V31.6C38.9928 29 37.1128 28.1 34.9728 28.1C33.4328 28.1 32.0328 28.6 30.9128 29.66L31.7728 31.12C32.6128 30.3 33.5528 29.9 34.6328 29.9C35.9728 29.9 36.8928 30.58 36.8928 31.7V33.14C36.1928 32.32 35.0728 31.9 33.7728 31.9C32.1928 31.9 30.4128 32.82 30.4128 35.04C30.4128 37.18 32.1928 38.24 33.7728 38.24C35.0528 38.24 36.1728 37.78 36.8928 36.96V38H38.9928ZM34.5928 36.8C33.4128 36.8 32.5328 36.12 32.5328 35.08C32.5328 34.02 33.4128 33.34 34.5928 33.34C35.5128 33.34 36.4128 33.68 36.8928 34.34V35.8C36.4128 36.46 35.5128 36.8 34.5928 36.8ZM55.6555 38V31.02C55.6555 29.06 54.6555 28.1 52.8755 28.1C51.4355 28.1 50.1555 29 49.5955 29.88C49.2755 28.82 48.3955 28.1 46.9555 28.1C45.4955 28.1 44.2155 29.06 43.8155 29.66V28.34H41.7155V38H43.8155V31.26C44.2555 30.62 45.1155 29.96 46.0355 29.96C47.1755 29.96 47.6355 30.66 47.6355 31.7V38H49.7355V31.24C50.1555 30.62 51.0355 29.96 51.9755 29.96C53.0955 29.96 53.5555 30.66 53.5555 31.7V38H55.6555ZM63.5756 38.24C66.0756 38.24 67.8556 36.34 67.8556 33.16C67.8556 29.98 66.0756 28.1 63.5756 28.1C62.3156 28.1 61.1956 28.7 60.4756 29.66V28.34H58.3756V41.68H60.4756V36.66C61.2556 37.7 62.3556 38.24 63.5756 38.24ZM62.9556 36.38C61.9756 36.38 60.9356 35.78 60.4756 35.08V31.26C60.9356 30.54 61.9756 29.96 62.9556 29.96C64.6156 29.96 65.6756 31.3 65.6756 33.16C65.6756 35.04 64.6156 36.38 62.9556 36.38ZM78.5581 38V28.34H76.4581V35.12C75.9581 35.78 75.0381 36.38 73.9781 36.38C72.7981 36.38 72.0381 35.92 72.0381 34.42V28.34H69.9381V35.18C69.9381 37.16 70.9581 38.24 73.0381 38.24C74.5581 38.24 75.7581 37.5 76.4581 36.72V38H78.5581ZM84.5858 38.24C87.1858 38.24 88.6058 36.94 88.6058 35.24C88.6058 31.4 82.7658 32.68 82.7658 30.96C82.7658 30.28 83.4658 29.78 84.5658 29.78C85.7658 29.78 86.8458 30.28 87.4258 30.94L88.3058 29.46C87.4258 28.68 86.1858 28.1 84.5458 28.1C82.1058 28.1 80.7458 29.46 80.7458 31.04C80.7458 34.74 86.5858 33.38 86.5858 35.28C86.5858 36.04 85.9458 36.58 84.6858 36.58C83.4258 36.58 82.0858 35.92 81.4058 35.22L80.4458 36.74C81.4458 37.72 82.9458 38.24 84.5858 38.24ZM97.5194 38C100.019 38 101.399 36.46 101.399 34.4C101.399 32.76 100.239 31.34 98.8194 31.12C100.059 30.86 101.139 29.74 101.139 28.06C101.139 26.18 99.7794 24.66 97.3394 24.66H90.7794V38H97.5194ZM96.8594 30.18H93.1194V26.72H96.8594C98.0594 26.72 98.7394 27.46 98.7394 28.46C98.7394 29.46 98.0594 30.18 96.8594 30.18ZM96.9594 35.94H93.1194V32.24H96.9594C98.2994 32.24 98.9994 33.08 98.9994 34.08C98.9994 35.24 98.2394 35.94 96.9594 35.94ZM112.308 38V28.34H110.208V35.12C109.708 35.78 108.788 36.38 107.728 36.38C106.548 36.38 105.788 35.92 105.788 34.42V28.34H103.688V35.18C103.688 37.16 104.708 38.24 106.788 38.24C108.308 38.24 109.508 37.5 110.208 36.72V38H112.308ZM123.936 38V24.66H121.836V29.68C121.056 28.66 119.936 28.1 118.736 28.1C116.236 28.1 114.436 30.06 114.436 33.18C114.436 36.36 116.256 38.24 118.736 38.24C119.976 38.24 121.096 37.64 121.836 36.68V38H123.936ZM119.336 36.38C117.676 36.38 116.616 35.04 116.616 33.18C116.616 31.3 117.676 29.96 119.336 29.96C120.336 29.96 121.356 30.54 121.836 31.26V35.1C121.356 35.82 120.336 36.38 119.336 36.38ZM135.557 38V24.66H133.457V29.68C132.677 28.66 131.557 28.1 130.357 28.1C127.857 28.1 126.057 30.06 126.057 33.18C126.057 36.36 127.877 38.24 130.357 38.24C131.597 38.24 132.717 37.64 133.457 36.68V38H135.557ZM130.957 36.38C129.297 36.38 128.237 35.04 128.237 33.18C128.237 31.3 129.297 29.96 130.957 29.96C131.957 29.96 132.977 30.54 133.457 31.26V35.1C132.977 35.82 131.957 36.38 130.957 36.38ZM137.858 41.78C138.158 41.86 138.738 41.92 139.038 41.92C140.538 41.9 141.698 41.38 142.358 39.74L147.018 28.34H144.758L141.938 35.58L139.118 28.34H136.878L140.838 38.12L140.358 39.22C140.078 39.86 139.638 40.06 138.978 40.06C138.738 40.06 138.398 40 138.178 39.9L137.858 41.78Z" fill="white"/>
</g>
</svg>
