<svg width="229" height="240" viewBox="0 0 229 240" fill="none" xmlns="http://www.w3.org/2000/svg">
<mask id="mask0" mask-type="alpha" maskUnits="userSpaceOnUse" x="0" y="0" width="229" height="240">
<rect width="229" height="240" rx="6" fill="#795548"/>
</mask>
<g mask="url(#mask0)">
<rect width="229" height="240" rx="6" fill="#0A0809"/>
<path d="M61.3492 253.301C60.3216 254.529 58.4773 254.694 57.2508 253.668C56.0244 252.641 55.8617 250.797 56.8894 249.569C57.917 248.341 59.7613 248.176 60.9877 249.202C62.2142 250.228 62.3769 252.073 61.3492 253.301ZM67.4526 241.476C65.7355 240.039 63.1535 240.27 61.7148 241.99C60.2761 243.709 60.5039 246.291 62.2209 247.728C63.938 249.165 66.5199 248.934 67.9586 247.214C69.3974 245.495 69.1696 242.913 67.4526 241.476ZM75.8606 231.428C73.6084 229.543 70.2477 229.844 68.3605 232.099C66.4734 234.354 66.7698 237.716 69.0221 239.6C71.2743 241.485 74.635 241.184 76.5221 238.929C78.4315 236.692 78.1128 233.312 75.8606 231.428ZM86.137 219.146C83.2158 216.702 78.8716 217.091 76.4239 220.016C73.9762 222.941 74.3594 227.286 77.2806 229.731C80.2018 232.175 84.5461 231.786 86.9938 228.861C89.4414 225.936 89.0583 221.591 86.137 219.146ZM99.4965 203.181C95.5718 199.897 89.7334 200.44 86.4636 204.348C83.1751 208.278 83.7107 214.117 87.6131 217.382C91.5155 220.648 97.3762 220.123 100.646 216.215C103.957 212.304 103.421 206.465 99.4965 203.181ZM116.667 182.66C111.739 178.536 104.403 179.193 100.274 184.128C96.1447 189.063 96.7918 196.4 101.72 200.524C106.648 204.647 113.984 203.99 118.113 199.056C122.224 194.143 121.596 186.784 116.667 182.66ZM55.3393 245.576C53.8959 244.9 52.1547 245.531 51.4766 246.976C50.7985 248.42 51.4271 250.161 52.8705 250.838C54.3139 251.514 56.0552 250.883 56.7333 249.438C57.4113 247.994 56.8238 246.249 55.3393 245.576ZM59.614 236.435C57.5679 235.483 55.148 236.381 54.2113 238.406C53.256 240.454 54.1509 242.874 56.1747 243.808C58.2209 244.761 60.6408 243.862 61.5774 241.837C62.5328 239.789 61.6378 237.37 59.614 236.435ZM65.1327 224.539C62.4616 223.291 59.2811 224.464 58.0298 227.137C56.7785 229.811 57.9471 232.99 60.6182 234.238C63.2893 235.487 66.4698 234.314 67.7211 231.64C68.9724 228.967 67.8039 225.787 65.1327 224.539ZM71.8877 210.032C68.4427 208.441 64.3413 209.944 62.7452 213.392C61.1491 216.84 62.6467 220.94 66.0917 222.532C69.5367 224.124 73.6381 222.621 75.2342 219.173C76.8303 215.725 75.3327 211.624 71.8877 210.032ZM80.6733 191.151C76.0229 189.006 70.5196 191.007 68.369 195.661C66.2184 200.315 68.2114 205.817 72.8617 207.962C77.5121 210.107 83.0154 208.106 85.166 203.452C87.2979 198.82 85.305 193.318 80.6733 191.151ZM91.9392 166.904C86.1244 164.202 79.1819 166.745 76.4731 172.565C73.7644 178.384 76.2973 185.325 82.1121 188.027C87.9268 190.728 94.8694 188.186 97.5782 182.366C100.287 176.546 97.7763 169.624 91.9392 166.904ZM105.341 138.066C98.2349 134.777 89.812 137.866 86.4927 144.959C83.1734 152.052 86.2722 160.491 93.3593 163.802C100.465 167.09 108.888 164.002 112.207 156.909C115.526 149.816 112.446 141.354 105.341 138.066ZM122.129 101.963C113.085 97.7741 102.38 101.687 98.1803 110.738C93.9803 119.79 97.8777 130.492 106.922 134.681C115.966 138.87 126.67 134.957 130.87 125.906C135.092 116.873 131.173 106.152 122.129 101.963ZM48.9827 243.522C47.3892 243.252 45.8926 244.315 45.5979 245.891C45.3031 247.467 46.3867 248.981 47.9616 249.274C49.5551 249.544 51.0516 248.48 51.3464 246.905C51.6412 245.329 50.5576 243.815 48.9827 243.522ZM50.7303 233.595C48.5075 233.216 46.4065 234.685 46.0243 236.909C45.6421 239.132 47.1078 241.232 49.3306 241.611C51.5533 241.991 53.6544 240.522 54.0365 238.298C54.4187 236.074 52.9307 233.956 50.7303 233.595ZM52.9999 220.689C50.0847 220.185 47.323 222.127 46.8347 225.021C46.3277 227.937 48.2647 230.697 51.1577 231.182C54.0729 231.685 56.8346 229.744 57.3229 226.849C57.8112 223.955 55.8742 221.195 52.9999 220.689ZM55.7614 204.928C52.0271 204.271 48.4482 206.781 47.7863 210.518C47.1244 214.254 49.6291 217.83 53.3634 218.487C57.0977 219.144 60.6766 216.634 61.3385 212.898C61.9968 209.121 59.4957 205.586 55.7614 204.928ZM59.344 184.427C54.3102 183.555 49.5072 186.939 48.6072 191.957C47.7072 196.974 51.1062 201.792 56.1213 202.686C61.155 203.557 65.9581 200.173 66.8581 195.156C67.7581 190.138 64.3777 185.298 59.344 184.427ZM63.9814 158.088C57.667 156.98 51.6175 161.219 50.524 167.555C49.4082 173.873 53.6383 179.918 59.9715 181.003C66.3046 182.089 72.3354 177.872 73.4289 171.536C74.526 165.241 70.2959 159.195 63.9814 158.088ZM42.2825 243.193C40.6841 243.336 39.507 244.743 39.648 246.341C39.789 247.94 41.1938 249.115 42.7922 248.972C44.3906 248.829 45.5677 247.422 45.4267 245.824C45.2857 244.225 43.8809 243.05 42.2825 243.193ZM41.3969 233.151C39.1428 233.352 37.4985 235.317 37.6973 237.572C37.8962 239.826 39.8585 241.468 42.1126 241.266C44.3667 241.064 46.011 239.099 45.8121 236.845C45.6133 234.591 43.6287 232.93 41.3969 233.151ZM40.2474 220.116C37.2965 220.38 35.1291 222.971 35.4081 225.899C35.687 228.828 38.2551 231.015 41.1836 230.732C44.1121 230.449 46.3018 227.878 46.0229 224.949C45.7439 222.02 43.1759 219.833 40.2474 220.116ZM38.8412 204.172C35.0707 204.509 32.268 207.859 32.5819 211.652C32.9145 215.423 36.2594 218.222 40.0522 217.903C43.8227 217.565 46.6253 214.216 46.3115 210.422C45.9753 206.61 42.6304 203.812 38.8412 204.172ZM35.7154 244.607C34.1942 245.156 33.4335 246.836 33.9808 248.357C34.5279 249.878 36.2058 250.636 37.7271 250.087C39.2483 249.537 40.009 247.858 39.4618 246.337C38.8959 244.839 37.2367 244.058 35.7154 244.607ZM32.2767 235.124C30.1552 235.892 29.0612 238.242 29.8453 240.341C30.6106 242.462 32.9581 243.553 35.0573 242.766C37.1789 241.997 38.2729 239.648 37.4888 237.549C36.7048 235.45 34.3983 234.356 32.2767 235.124ZM27.784 222.823C25.0025 223.836 23.5788 226.897 24.6069 229.655C25.6351 232.414 28.6744 233.856 31.4336 232.824C34.2151 231.811 35.6388 228.75 34.6107 225.992C33.6049 223.252 30.5468 221.832 27.784 222.823ZM22.3078 207.8C18.747 209.111 16.8851 213.058 18.2127 216.636C19.5181 220.196 23.4615 222.053 27.041 220.72C30.6204 219.388 32.4636 215.463 31.136 211.885C29.8307 208.325 25.8686 206.49 22.3078 207.8ZM15.1749 188.279C10.3725 190.031 7.88858 195.355 9.65613 200.175C11.4237 204.995 16.7214 207.454 21.5424 205.679C26.3448 203.927 28.8287 198.603 27.0612 193.783C25.2936 188.963 19.9773 186.527 15.1749 188.279ZM6.0008 163.177C-0.0208657 165.389 -3.1491 172.073 -0.94523 178.093C1.25864 184.113 7.93646 187.233 13.9581 185.021C19.9798 182.808 23.108 176.125 20.9042 170.105C18.7413 164.081 12.0634 160.961 6.0008 163.177ZM-4.89262 133.333C-12.2565 136.017 -16.0405 144.164 -13.3672 151.526C-10.6939 158.888 -2.55392 162.662 4.80997 159.978C12.1739 157.295 15.9579 149.148 13.2846 141.786C10.6112 134.423 2.48995 130.627 -4.89262 133.333ZM-18.5148 95.9672C-27.8586 99.386 -32.6878 109.733 -29.26 119.094C-25.8544 128.435 -15.5158 133.252 -6.15335 129.811C3.19044 126.392 8.01963 116.044 4.59178 106.684C1.18623 97.3427 -9.15234 92.5261 -18.5148 95.9672ZM29.7474 247.662C28.4449 248.584 28.1085 250.39 29.0511 251.711C29.9714 253.012 31.7771 253.346 33.0982 252.402C34.4194 251.457 34.7371 249.673 33.7945 248.353C32.8742 247.051 31.0722 246.758 29.7474 247.662ZM23.9587 239.401C22.1114 240.703 21.6725 243.221 22.9713 245.067C24.2701 246.913 26.7869 247.348 28.6343 246.047C30.4816 244.745 30.9204 242.227 29.6217 240.381C28.3452 238.554 25.7874 238.122 23.9587 239.401ZM16.4482 228.713C14.0374 230.416 13.4623 233.731 15.1431 236.163C16.824 238.594 20.1563 239.143 22.5894 237.458C25.0226 235.774 25.5754 232.44 23.8945 230.008C22.2137 227.577 18.8591 227.01 16.4482 228.713ZM7.27918 215.612C4.16675 217.791 3.41021 222.093 5.58464 225.203C7.75908 228.314 12.0593 229.065 15.1717 226.885C18.2842 224.706 19.0407 220.404 16.8663 217.294C14.6695 214.165 10.3693 213.414 7.27918 215.612ZM-4.67302 198.587C-8.87516 201.525 -9.87403 207.295 -6.94263 211.494C-4.01124 215.693 1.75599 216.685 5.95812 213.747C10.1602 210.809 11.1591 205.039 8.2277 200.84C5.27763 196.663 -0.51188 195.653 -4.67302 198.587ZM-20.0243 176.744C-25.2752 180.437 -26.576 187.7 -22.869 192.966C-19.1842 198.213 -11.9242 199.505 -6.65461 195.79C-1.38507 192.075 -0.102884 184.834 -3.80992 179.568C-7.51696 174.302 -14.7548 173.029 -20.0243 176.744ZM24.7737 252.156C23.7461 253.384 23.9088 255.228 25.1352 256.254C26.3617 257.281 28.206 257.116 29.2336 255.887C30.2613 254.659 30.0986 252.815 28.8721 251.789C27.6457 250.762 25.8014 250.928 24.7737 252.156ZM17.0582 245.7C15.6195 247.419 15.8472 250.001 17.5643 251.438C19.2813 252.875 21.8633 252.643 23.302 250.924C24.7407 249.205 24.513 246.622 22.7959 245.186C21.0789 243.749 18.4969 243.98 17.0582 245.7ZM7.0235 237.303C5.13638 239.558 5.43277 242.919 7.68501 244.804C9.93723 246.688 13.2979 246.387 15.1851 244.132C17.0722 241.877 16.7758 238.516 14.5235 236.631C12.2713 234.747 8.91064 235.048 7.0235 237.303ZM-5.24112 227.04C-7.68879 229.965 -7.30563 234.31 -4.38442 236.755C-1.4632 239.199 2.88108 238.81 5.32875 235.885C7.77642 232.96 7.35225 228.618 4.43105 226.174C1.50984 223.73 -2.81214 224.137 -5.24112 227.04ZM-21.1851 213.699C-24.4736 217.629 -23.938 223.468 -20.0356 226.733C-16.1109 230.017 -10.2726 229.474 -7.00277 225.566C-3.73298 221.659 -4.24991 215.797 -8.15228 212.532C-12.077 209.248 -17.8967 209.769 -21.1851 213.699ZM-41.6782 196.551C-45.8075 201.486 -45.1604 208.823 -40.2323 212.946C-35.3041 217.07 -27.968 216.413 -23.8387 211.478C-19.7095 206.544 -20.3565 199.207 -25.2847 195.083C-30.1905 190.978 -37.5489 191.616 -41.6782 196.551ZM-66.029 176.175C-71.0552 182.182 -70.2858 191.14 -64.265 196.178C-58.2442 201.216 -49.3097 200.415 -44.2649 194.387C-39.2201 188.358 -40.0081 179.422 -46.029 174.384C-52.0498 169.346 -61.0029 170.168 -66.029 176.175ZM21.1417 257.81C20.4636 259.255 21.0921 260.996 22.5356 261.672C23.979 262.348 25.7203 261.717 26.3984 260.273C27.0764 258.828 26.4479 257.087 25.0044 256.411C23.5387 255.716 21.7975 256.347 21.1417 257.81ZM11.9898 253.569C11.0344 255.617 11.9294 258.036 13.9532 258.97C15.9993 259.923 18.4192 259.025 19.3559 256.999C20.3113 254.951 19.4163 252.532 17.3925 251.598C15.3686 250.664 12.9452 251.521 11.9898 253.569ZM0.122204 248.042C-1.12909 250.716 0.0394279 253.896 2.71056 255.144C5.38169 256.392 8.56219 255.219 9.81349 252.545C11.0648 249.872 9.89625 246.692 7.22512 245.444C4.53531 244.218 1.37351 245.369 0.122204 248.042ZM-14.3719 241.305C-15.968 244.753 -14.4704 248.853 -11.0254 250.445C-7.58045 252.037 -3.47902 250.534 -1.88295 247.086C-0.28688 243.638 -1.78446 239.538 -5.22944 237.946C-8.67442 236.354 -12.7759 237.857 -14.3719 241.305ZM-33.2561 232.565C-35.4067 237.219 -33.4137 242.721 -28.7633 244.866C-24.113 247.011 -18.6096 245.01 -16.4591 240.356C-14.3085 235.702 -16.3014 230.2 -20.9518 228.055C-25.5612 225.906 -31.0832 227.929 -33.2561 232.565ZM-57.4638 221.306C-60.1725 227.126 -57.6396 234.067 -51.8248 236.768C-46.01 239.47 -39.0675 236.927 -36.3587 231.108C-33.65 225.288 -36.1829 218.347 -41.9977 215.645C-47.8124 212.944 -54.755 215.486 -57.4638 221.306ZM-86.2773 207.94C-89.5743 215.052 -86.4978 223.472 -79.4107 226.783C-72.305 230.071 -63.8821 226.983 -60.5628 219.89C-57.2658 212.778 -60.3423 204.357 -67.4294 201.047C-74.5351 197.758 -82.9802 200.828 -86.2773 207.94ZM-122.349 191.196C-126.549 200.247 -122.652 210.949 -113.608 215.138C-104.564 219.327 -93.8589 215.415 -89.659 206.363C-85.459 197.311 -89.3563 186.609 -98.4003 182.42C-107.444 178.231 -118.149 182.144 -122.349 191.196ZM19.0609 264.193C18.7885 265.788 19.8498 267.283 21.4246 267.576C22.9995 267.869 24.5147 266.783 24.8095 265.207C25.082 263.613 24.0206 262.117 22.4458 261.825C20.8709 261.532 19.3557 262.618 19.0609 264.193ZM9.13873 262.459C8.75654 264.682 10.2222 266.782 12.445 267.161C14.6677 267.541 16.7688 266.072 17.151 263.848C17.5332 261.624 16.0675 259.525 13.8447 259.145C11.6407 258.744 9.52092 260.235 9.13873 262.459ZM-3.76202 260.206C-4.26899 263.122 -2.332 265.882 0.560949 266.367C3.4762 266.87 6.23783 264.929 6.72612 262.034C7.23309 259.118 5.2961 256.358 2.40315 255.873C-0.471104 255.367 -3.23274 257.308 -3.76202 260.206ZM-19.5147 257.464C-20.1766 261.2 -17.6719 264.777 -13.9376 265.434C-10.2033 266.091 -6.62434 263.581 -5.96246 259.845C-5.30057 256.109 -7.80528 252.532 -11.5396 251.875C-15.2962 251.2 -18.8528 253.728 -19.5147 257.464ZM-39.9884 253.886C-40.8661 258.922 -37.4893 263.722 -32.4742 264.615C-27.4592 265.509 -22.6375 262.102 -21.7375 257.085C-20.8375 252.068 -24.2365 247.249 -29.2516 246.356C-34.2666 245.462 -39.1106 248.85 -39.9884 253.886ZM-66.3335 249.305C-67.4493 255.622 -63.2191 261.667 -56.886 262.753C-50.5715 263.86 -44.5221 259.621 -43.4286 253.285C-42.3127 246.968 -46.5429 240.922 -52.876 239.837C-59.1682 238.748 -65.199 242.965 -66.3335 249.305ZM-97.6303 243.845C-98.9734 251.567 -93.823 258.913 -86.1048 260.247C-78.3867 261.58 -71.0348 256.418 -69.6917 248.697C-68.3486 240.975 -73.4991 233.628 -81.2172 232.295C-88.8944 230.958 -96.265 236.142 -97.6303 243.845ZM18.7413 270.873C18.8823 272.472 20.2871 273.647 21.8855 273.504C23.4839 273.361 24.661 271.954 24.52 270.356C24.379 268.757 22.9742 267.582 21.3758 267.725C19.7774 267.868 18.6003 269.275 18.7413 270.873ZM8.68156 271.795C8.88039 274.049 10.8427 275.691 13.0968 275.489C15.3509 275.288 16.9952 273.323 16.7964 271.068C16.5976 268.814 14.6352 267.172 12.3811 267.374C10.127 267.575 8.48275 269.54 8.68156 271.795ZM-4.35129 272.962C-4.09102 275.913 -1.5043 278.078 1.42424 277.795C4.35278 277.512 6.54248 274.94 6.26353 272.011C5.98457 269.083 3.41652 266.896 0.487994 267.179C-2.44053 267.462 -4.61155 270.011 -4.35129 272.962ZM-20.294 274.39C-19.9614 278.161 -16.6165 280.959 -12.8237 280.64C-9.0532 280.303 -6.25053 276.953 -6.5644 273.16C-6.89696 269.389 -10.2419 266.59 -14.0347 266.909C-17.8275 267.228 -20.6302 270.578 -20.294 274.39ZM-41.0131 276.224C-40.5649 281.307 -36.0604 285.076 -30.9784 284.621C-25.8964 284.166 -22.1221 279.655 -22.5704 274.573C-23.0186 269.49 -27.5231 265.721 -32.6051 266.176C-37.6871 266.631 -41.4613 271.142 -41.0131 276.224ZM-67.6302 278.629C-67.0663 285.023 -61.4246 289.744 -55.0088 289.19C-48.5931 288.636 -43.8882 282.968 -44.4334 276.551C-44.9787 270.135 -50.6391 265.436 -57.0548 265.99C-63.4706 266.544 -68.1755 272.212 -67.6302 278.629ZM-99.2921 281.443C-98.6052 289.231 -91.7148 294.997 -83.9278 294.3C-76.1409 293.602 -70.3674 286.702 -71.0542 278.915C-71.741 271.127 -78.6315 265.361 -86.4184 266.058C-94.2054 266.756 -99.9789 273.656 -99.2921 281.443ZM-138.923 284.992C-138.049 294.912 -129.307 302.226 -119.389 301.338C-109.471 300.45 -102.147 291.697 -103.022 281.777C-103.896 271.858 -112.638 264.544 -122.556 265.432C-132.474 266.32 -139.798 275.073 -138.923 284.992ZM20.1465 277.44C20.6938 278.961 22.3716 279.72 23.8929 279.17C25.4141 278.621 26.1748 276.942 25.6276 275.421C25.0804 273.9 23.4025 273.141 21.8813 273.691C20.3823 274.259 19.5807 275.942 20.1465 277.44ZM10.6611 280.892C11.4265 283.013 13.774 284.104 15.8732 283.317C17.9947 282.549 19.0887 280.199 18.3047 278.101C17.5393 275.98 15.1918 274.889 13.0926 275.676C10.9934 276.463 9.87708 278.794 10.6611 280.892ZM-1.64316 285.402C-0.633729 288.183 2.42433 289.603 5.18353 288.571C7.94274 287.539 9.38871 284.497 8.36059 281.739C7.35116 278.958 4.29309 277.538 1.53389 278.57C-1.20663 279.58 -2.64898 282.663 -1.64316 285.402ZM-16.6693 290.9C-15.3639 294.46 -11.4205 296.317 -7.84105 294.984C-4.28025 293.674 -2.4184 289.727 -3.74601 286.148C-5.05136 282.588 -8.99475 280.731 -12.5742 282.064C-16.135 283.374 -17.9746 287.34 -16.6693 290.9ZM-36.2145 298.083C-34.4693 302.884 -29.1493 305.361 -24.3282 303.587C-19.5072 301.813 -17.042 296.51 -18.8095 291.691C-20.5548 286.889 -25.8747 284.412 -30.6958 286.186C-35.5169 287.961 -37.9598 293.282 -36.2145 298.083ZM-61.3041 307.27C-59.1002 313.29 -52.4224 316.41 -46.4007 314.198C-40.3791 311.986 -37.2508 305.302 -39.4547 299.282C-41.6586 293.262 -48.3364 290.142 -54.3581 292.354C-60.402 294.548 -63.5303 301.231 -61.3041 307.27ZM-91.155 318.206C-88.4817 325.568 -80.3417 329.342 -72.9779 326.658C-65.614 323.974 -61.8299 315.827 -64.5033 308.465C-67.1766 301.103 -75.3165 297.329 -82.6804 300.013C-90.0666 302.678 -93.8506 310.825 -91.155 318.206ZM23.1924 283.406C24.1127 284.707 25.9184 285.041 27.2395 284.097C28.542 283.174 28.8784 281.368 27.9358 280.048C27.0155 278.746 25.2098 278.412 23.8887 279.357C22.5862 280.279 22.2721 282.104 23.1924 283.406ZM14.9262 289.207C16.2249 291.053 18.7418 291.488 20.5891 290.187C22.4364 288.885 22.8753 286.367 21.5765 284.521C20.2778 282.675 17.7609 282.239 15.9136 283.541C14.085 284.82 13.6497 287.379 14.9262 289.207ZM4.21169 296.755C5.91123 299.165 9.22486 299.735 11.658 298.051C14.0912 296.366 14.644 293.033 12.9631 290.601C11.2823 288.17 7.94995 287.621 5.51679 289.306C3.08362 290.99 2.53084 294.324 4.21169 296.755ZM-8.89856 305.944C-6.72412 309.054 -2.42387 309.805 0.688551 307.626C3.80097 305.447 4.55751 301.145 2.38306 298.035C0.208618 294.924 -4.09163 294.173 -7.20405 296.352C-10.3165 298.531 -11.073 302.834 -8.89856 305.944ZM-25.9349 317.922C-23.0035 322.121 -17.2363 323.112 -13.0342 320.175C-8.83204 317.237 -7.83317 311.467 -10.7646 307.268C-13.696 303.069 -19.4632 302.077 -23.6653 305.015C-27.8265 307.949 -28.844 313.741 -25.9349 317.922ZM-47.793 333.306C-44.1082 338.553 -36.8482 339.844 -31.5786 336.129C-26.3278 332.437 -25.0269 325.173 -28.7339 319.907C-32.4187 314.66 -39.6788 313.369 -44.9483 317.084C-50.1992 320.776 -51.4813 328.017 -47.793 333.306ZM27.6787 288.374C28.9052 289.401 30.7495 289.235 31.7771 288.007C32.8048 286.779 32.6421 284.935 31.4156 283.908C30.1892 282.882 28.3449 283.047 27.3173 284.275C26.2896 285.504 26.4523 287.348 27.6787 288.374ZM21.1952 296.123C22.9123 297.559 25.4943 297.328 26.933 295.609C28.3717 293.889 28.1439 291.307 26.4269 289.87C24.7098 288.434 22.1279 288.665 20.6891 290.384C19.2504 292.104 19.4782 294.686 21.1952 296.123ZM12.7872 306.171C15.0394 308.056 18.4001 307.755 20.2872 305.499C22.1744 303.244 21.878 299.883 19.6257 297.998C17.3735 296.114 14.0128 296.415 12.1257 298.67C10.2386 300.925 10.535 304.286 12.7872 306.171ZM33.3085 292.022C34.7519 292.698 36.4931 292.067 37.1712 290.623C37.8493 289.178 37.2207 287.437 35.7773 286.761C34.3338 286.085 32.5926 286.716 31.9145 288.16C31.2364 289.605 31.865 291.346 33.3085 292.022ZM29.0561 301.182C31.1022 302.135 33.5221 301.236 34.4588 299.211C35.4141 297.163 34.5192 294.744 32.4953 293.809C30.4492 292.857 28.0293 293.755 27.0927 295.78C26.156 297.806 27.0099 300.229 29.0561 301.182ZM23.5337 313.037C26.2049 314.285 29.3854 313.112 30.6367 310.439C31.888 307.765 30.7194 304.586 28.0483 303.338C25.3772 302.09 22.1967 303.263 20.9454 305.936C19.7164 308.628 20.8626 311.789 23.5337 313.037ZM16.7788 327.544C20.2238 329.136 24.3252 327.632 25.9213 324.184C27.5174 320.736 26.0198 316.636 22.5748 315.044C19.1298 313.452 15.0284 314.956 13.4323 318.404C11.8362 321.852 13.3338 325.952 16.7788 327.544ZM8.01549 346.444C12.6658 348.589 18.1692 346.588 20.3198 341.934C22.4704 337.28 20.4774 331.778 15.827 329.633C11.1767 327.488 5.67335 329.489 3.52277 334.143C1.34987 338.779 3.36511 344.299 8.01549 346.444ZM-3.27273 370.673C2.54204 373.374 9.48465 370.831 12.1934 365.012C14.9021 359.192 12.3692 352.251 6.55443 349.549C0.739671 346.848 -6.20295 349.391 -8.91168 355.21C-11.6391 361.052 -9.08749 367.971 -3.27273 370.673ZM-16.6741 399.511C-9.56842 402.799 -1.14559 399.711 2.17373 392.617C5.47075 385.506 2.39426 377.085 -4.6928 373.774C-11.7985 370.486 -20.2214 373.574 -23.5407 380.667C-26.8564 387.802 -23.7799 396.222 -16.6741 399.511ZM-33.4811 435.636C-24.4371 439.824 -13.7324 435.912 -9.53248 426.86C-5.33255 417.809 -9.22983 407.106 -18.2738 402.918C-27.3178 398.729 -38.0225 402.641 -42.2225 411.693C-46.4037 420.722 -42.5064 431.424 -33.4811 435.636ZM39.7061 294.073C41.2996 294.343 42.7961 293.279 43.0909 291.704C43.3634 290.11 42.3021 288.614 40.7272 288.321C39.1337 288.051 37.6371 289.114 37.3424 290.69C37.0699 292.284 38.1125 293.802 39.7061 294.073ZM37.9585 303.999C40.1812 304.379 42.2823 302.91 42.6645 300.686C43.0467 298.462 41.581 296.363 39.3582 295.983C37.1355 295.604 35.0344 297.073 34.6522 299.297C34.2477 301.502 35.7357 303.62 37.9585 303.999ZM35.6889 316.906C38.6041 317.409 41.3658 315.468 41.8541 312.574C42.361 309.657 40.424 306.898 37.5311 306.413C34.6158 305.91 31.8542 307.851 31.3659 310.745C30.8367 313.643 32.7736 316.403 35.6889 316.906ZM32.9274 332.666C36.6617 333.323 40.2406 330.813 40.9025 327.077C41.5644 323.341 39.0597 319.765 35.3254 319.108C31.5911 318.451 28.0122 320.961 27.3503 324.697C26.6697 328.455 29.1744 332.032 32.9274 332.666ZM29.3039 353.172C34.3376 354.043 39.1406 350.659 40.0406 345.642C40.9406 340.624 37.5416 335.806 32.5265 334.912C27.4928 334.041 22.6897 337.425 21.7897 342.443C20.8897 347.46 24.2701 352.301 29.3039 353.172ZM24.7074 379.507C31.0218 380.615 37.0713 376.376 38.1648 370.04C39.2806 363.722 35.0505 357.677 28.7173 356.591C22.4028 355.484 16.3534 359.723 15.2599 366.059C14.1441 372.377 18.3706 378.381 24.7074 379.507ZM19.2073 410.819C26.9254 412.152 34.2773 406.99 35.6204 399.269C36.9635 391.547 31.813 384.2 24.0949 382.867C16.3768 381.534 9.02484 386.695 7.68177 394.417C6.31639 402.12 11.4891 409.486 19.2073 410.819ZM46.384 294.383C47.9823 294.24 49.1595 292.834 49.0185 291.235C48.8775 289.636 47.4727 288.461 45.8743 288.604C44.2759 288.747 43.0988 290.154 43.2398 291.752C43.3807 293.351 44.7856 294.527 46.384 294.383ZM47.2919 304.444C49.546 304.242 51.1902 302.277 50.9914 300.023C50.7926 297.769 48.8303 296.127 46.5762 296.329C44.3221 296.53 42.6778 298.495 42.8766 300.75C43.0531 302.985 45.0378 304.646 47.2919 304.444ZM48.4227 317.501C51.3736 317.237 53.541 314.647 53.262 311.718C52.9831 308.789 50.415 306.602 47.4865 306.885C44.558 307.168 42.3683 309.739 42.6472 312.668C42.9262 315.597 45.4906 317.743 48.4227 317.501ZM49.8289 333.446C53.5994 333.108 56.4021 329.759 56.0882 325.965C55.7556 322.194 52.4107 319.395 48.6179 319.714C44.8474 320.052 42.0447 323.402 42.3586 327.195C42.6912 330.966 46.0361 333.765 49.8289 333.446ZM51.6544 354.145C56.7364 353.69 60.5106 349.179 60.0624 344.097C59.6142 339.014 55.1097 335.245 50.0277 335.7C44.9457 336.155 41.1714 340.666 41.6197 345.748C42.0679 350.831 46.5724 354.6 51.6544 354.145ZM54.004 380.788C60.3975 380.215 65.1247 374.566 64.5794 368.149C64.0342 361.733 58.3738 357.034 51.958 357.588C45.5423 358.142 40.8374 363.81 41.3826 370.226C41.9278 376.643 47.5882 381.341 54.004 380.788ZM52.9324 292.991C54.4536 292.442 55.2143 290.763 54.6671 289.242C54.1199 287.721 52.442 286.962 50.9207 287.512C49.3995 288.061 48.6388 289.74 49.186 291.261C49.7519 292.76 51.4521 293.537 52.9324 292.991ZM56.3897 302.452C58.5113 301.684 59.6053 299.334 58.8212 297.236C58.0559 295.115 55.7084 294.023 53.6091 294.811C51.4876 295.579 50.3936 297.928 51.1777 300.027C51.943 302.148 54.2905 303.239 56.3897 302.452ZM60.8825 314.753C63.664 313.74 65.0876 310.679 64.0595 307.921C63.0314 305.162 59.9921 303.72 57.2329 304.752C54.4513 305.765 53.0277 308.826 54.0558 311.585C55.0429 314.347 58.1233 315.785 60.8825 314.753ZM66.3587 329.776C69.9195 328.465 71.7814 324.519 70.4537 320.94C69.1261 317.361 65.205 315.523 61.6255 316.856C58.0647 318.166 56.2029 322.113 57.5305 325.692C58.8358 329.251 62.7979 331.086 66.3587 329.776ZM58.9191 289.915C60.2216 288.992 60.5579 287.186 59.6154 285.866C58.6951 284.564 56.8894 284.23 55.5682 285.175C54.2658 286.097 53.9294 287.903 54.872 289.224C55.7923 290.525 57.598 290.859 58.9191 289.915ZM64.7078 298.175C66.5551 296.874 66.9939 294.355 65.6952 292.509C64.3964 290.663 61.8796 290.228 60.0322 291.529C58.1849 292.831 57.7461 295.349 59.0448 297.195C60.3436 299.041 62.8605 299.477 64.7078 298.175ZM72.2219 308.904C74.6327 307.201 75.2078 303.886 73.527 301.455C71.8461 299.023 68.5138 298.475 66.0807 300.159C63.6475 301.844 63.0947 305.177 64.7756 307.609C66.4564 310.04 69.8074 310.567 72.2219 308.904ZM81.4096 321.983C84.522 319.804 85.2786 315.502 83.1041 312.392C80.9297 309.281 76.6294 308.53 73.517 310.709C70.4046 312.889 69.6481 317.191 71.8225 320.301C73.997 323.411 78.2972 324.162 81.4096 321.983ZM93.3618 339.008C97.5639 336.07 98.5628 330.3 95.6314 326.101C92.7 321.902 86.9328 320.91 82.7307 323.848C78.5285 326.786 77.5297 332.556 80.4611 336.755C83.3702 340.935 89.1597 341.945 93.3618 339.008ZM108.694 360.873C113.945 357.18 115.246 349.917 111.539 344.651C107.854 339.404 100.594 338.112 95.3247 341.827C90.0739 345.52 88.773 352.783 92.48 358.049C96.1871 363.315 103.421 364.547 108.694 360.873ZM126.951 386.855C133.37 382.356 134.902 373.502 130.413 367.087C125.923 360.673 117.073 359.152 110.654 363.651C104.235 368.151 102.702 377.005 107.192 383.419C111.682 389.834 120.514 391.377 126.951 386.855ZM63.8927 285.421C64.9204 284.192 64.7577 282.348 63.5313 281.322C62.3048 280.295 60.4605 280.461 59.4329 281.689C58.4052 282.917 58.5679 284.761 59.7944 285.788C61.0208 286.814 62.8651 286.649 63.8927 285.421ZM71.6306 291.895C73.0693 290.176 72.8416 287.594 71.1245 286.157C69.4075 284.72 66.8255 284.951 65.3868 286.671C63.9481 288.39 64.1758 290.972 65.8929 292.409C67.6099 293.846 70.1919 293.615 71.6306 291.895ZM81.6653 300.292C83.5524 298.037 83.256 294.676 81.0038 292.791C78.7516 290.906 75.3909 291.207 73.5037 293.463C71.6166 295.718 71.913 299.079 74.1653 300.964C76.3988 302.871 79.7782 302.547 81.6653 300.292ZM93.9299 310.555C96.3776 307.629 95.9944 303.285 93.0732 300.84C90.152 298.396 85.8077 298.785 83.36 301.71C80.9124 304.635 81.2955 308.98 84.2167 311.424C87.138 313.869 91.4822 313.48 93.9299 310.555ZM109.874 323.896C113.162 319.966 112.627 314.127 108.724 310.862C104.822 307.596 98.9613 308.121 95.6916 312.029C92.4218 315.936 92.9387 321.798 96.8411 325.063C100.743 328.328 106.585 327.826 109.874 323.896ZM130.345 341.025C134.474 336.09 133.827 328.753 128.899 324.63C123.971 320.506 116.635 321.163 112.505 326.098C108.376 331.033 109.023 338.37 113.951 342.493C118.879 346.617 126.215 345.96 130.345 341.025ZM67.5471 279.785C68.2252 278.34 67.5966 276.599 66.1532 275.923C64.7097 275.246 62.9685 275.878 62.2904 277.322C61.6123 278.767 62.2409 280.508 63.6844 281.184C65.1278 281.86 66.8503 281.252 67.5471 279.785ZM76.6803 284.048C77.6357 282 76.7407 279.581 74.7169 278.647C72.6708 277.694 70.2509 278.592 69.3142 280.618C68.3588 282.666 69.2538 285.085 71.2776 286.019C73.3015 286.953 75.7436 286.074 76.6803 284.048ZM88.5443 289.534C89.7956 286.86 88.627 283.681 85.9559 282.433C83.2848 281.185 80.1043 282.358 78.853 285.031C77.6017 287.704 78.7702 290.884 81.4414 292.132C84.1125 293.38 87.293 292.207 88.5443 289.534ZM103.038 296.271C104.634 292.823 103.137 288.723 99.6919 287.131C96.247 285.539 92.1455 287.042 90.5494 290.49C88.9534 293.938 90.4509 298.039 93.8959 299.63C97.3409 301.222 101.442 299.719 103.038 296.271ZM69.5869 273.405C69.8593 271.811 68.7981 270.315 67.2232 270.023C65.6297 269.752 64.1331 270.816 63.8383 272.391C63.5659 273.986 64.6272 275.481 66.202 275.774C67.7956 276.044 69.3144 274.999 69.5869 273.405ZM79.5091 275.14C79.8913 272.916 78.4256 270.817 76.2028 270.437C73.9801 270.058 71.879 271.527 71.4968 273.75C71.1146 275.974 72.5803 278.074 74.8031 278.453C77.0258 278.833 79.1456 277.341 79.5091 275.14ZM92.4098 277.393C92.9168 274.476 90.9798 271.717 88.0868 271.232C85.1716 270.729 82.41 272.67 81.9217 275.564C81.4147 278.481 83.3517 281.241 86.2446 281.725C89.1599 282.228 91.9215 280.287 92.4098 277.393ZM108.163 280.134C108.824 276.398 106.32 272.822 102.585 272.165C98.8511 271.507 95.2721 274.017 94.6103 277.754C93.9484 281.49 96.4531 285.066 100.187 285.723C103.963 286.377 107.523 283.889 108.163 280.134ZM128.677 283.709C129.555 278.673 126.178 273.873 121.163 272.98C116.148 272.086 111.326 275.492 110.426 280.51C109.549 285.546 112.925 290.346 117.94 291.239C122.955 292.133 127.799 288.745 128.677 283.709ZM154.981 288.294C156.097 281.976 151.867 275.931 145.534 274.846C139.219 273.738 133.17 277.977 132.076 284.313C130.983 290.65 135.191 296.676 141.524 297.761C147.838 298.869 153.865 294.611 154.981 288.294ZM186.278 293.754C187.621 286.032 182.471 278.685 174.753 277.352C167.034 276.019 159.683 281.18 158.34 288.902C156.996 296.624 162.147 303.971 169.865 305.304C177.583 306.637 184.935 301.475 186.278 293.754ZM225.483 300.592C227.2 290.791 220.655 281.442 210.859 279.737C201.064 278.032 191.708 284.592 189.99 294.392C188.273 304.192 194.818 313.542 204.614 315.247C214.41 316.951 223.766 310.392 225.483 300.592ZM69.9252 266.703C69.7842 265.104 68.3794 263.929 66.781 264.072C65.1826 264.215 64.0055 265.622 64.1465 267.22C64.2875 268.819 65.6923 269.994 67.2907 269.851C68.8891 269.708 70.0662 268.301 69.9252 266.703ZM79.9662 265.804C79.7674 263.549 77.8051 261.907 75.551 262.109C73.2969 262.311 71.6526 264.276 71.8514 266.53C72.0503 268.785 74.0126 270.427 76.2667 270.225C78.5208 270.023 80.1837 268.036 79.9662 265.804ZM93.0214 264.655C92.7611 261.704 90.1744 259.54 87.2459 259.822C84.3173 260.105 82.1276 262.677 82.4066 265.606C82.6855 268.535 85.2536 270.721 88.1821 270.439C91.1106 270.156 93.278 267.565 93.0214 264.655ZM108.964 263.228C108.632 259.457 105.287 256.658 101.494 256.977C97.7233 257.314 94.9206 260.664 95.2345 264.457C95.5671 268.228 98.912 271.027 102.705 270.708C106.494 270.348 109.297 266.998 108.964 263.228ZM129.68 261.352C129.231 256.269 124.727 252.5 119.645 252.955C114.563 253.41 110.789 257.921 111.237 263.003C111.685 268.086 116.19 271.855 121.272 271.4C126.354 270.945 130.128 266.434 129.68 261.352ZM156.3 258.989C155.736 252.594 150.095 247.873 143.679 248.427C137.263 248.981 132.558 254.649 133.104 261.066C133.649 267.482 139.309 272.181 145.725 271.627C152.141 271.073 156.864 265.383 156.3 258.989ZM68.5422 260.155C67.995 258.634 66.3171 257.875 64.7959 258.425C63.2747 258.974 62.514 260.653 63.0612 262.174C63.6084 263.695 65.2863 264.454 66.8075 263.904C68.3065 263.336 69.0671 261.657 68.5422 260.155ZM78.0054 256.684C77.24 254.563 74.8925 253.472 72.7933 254.259C70.6717 255.027 69.5778 257.377 70.3618 259.475C71.1272 261.596 73.4746 262.688 75.5739 261.901C77.6954 261.132 78.7707 258.805 78.0054 256.684ZM90.3097 252.174C89.3002 249.393 86.2422 247.973 83.483 249.005C80.7238 250.037 79.2778 253.079 80.3059 255.838C81.3153 258.618 84.3734 260.038 87.1326 259.006C89.8954 258.015 91.3191 254.955 90.3097 252.174ZM105.336 246.676C104.03 243.116 100.087 241.259 96.5075 242.592C92.9281 243.925 91.0849 247.849 92.4125 251.428C93.7401 255.006 97.6612 256.845 101.241 255.512C104.802 254.202 106.641 250.236 105.336 246.676ZM124.862 239.516C123.117 234.715 117.797 232.237 112.976 234.012C108.155 235.786 105.69 241.088 107.457 245.908C109.225 250.728 114.523 253.187 119.344 251.412C124.165 249.638 126.63 244.336 124.862 239.516ZM149.993 230.325C147.789 224.305 141.111 221.185 135.089 223.397C129.068 225.609 125.94 232.293 128.143 238.313C130.347 244.333 137.025 247.453 143.047 245.241C149.05 243.051 152.178 236.367 149.993 230.325ZM179.844 219.389C177.17 212.027 169.031 208.253 161.667 210.937C154.303 213.62 150.519 221.767 153.192 229.129C155.865 236.492 164.005 240.266 171.369 237.582C178.733 234.898 182.517 226.751 179.844 219.389ZM65.4741 254.171C64.5538 252.869 62.7481 252.535 61.4269 253.48C60.1245 254.402 59.7881 256.208 60.7307 257.529C61.6733 258.849 63.4567 259.164 64.7778 258.22C66.0803 257.297 66.398 255.513 65.4741 254.171ZM73.7403 248.37C72.4416 246.524 69.9247 246.088 68.0774 247.39C66.2301 248.691 65.7912 251.209 67.0899 253.055C68.3887 254.901 70.9056 255.337 72.7529 254.035C74.5816 252.756 75.0391 250.216 73.7403 248.37ZM84.4584 240.862C82.7589 238.453 79.4452 237.882 77.0121 239.566C74.5789 241.251 74.0261 244.585 75.707 247.016C77.3878 249.448 80.7201 249.996 83.1533 248.312C85.5865 246.627 86.1356 243.252 84.4584 240.862ZM97.5464 231.654C95.3719 228.544 91.0717 227.793 87.9593 229.972C84.8468 232.151 84.0903 236.454 86.2647 239.564C88.4392 242.674 92.7394 243.425 95.8519 241.246C98.983 239.045 99.7395 234.742 97.5464 231.654ZM114.583 219.677C111.651 215.478 105.884 214.486 101.682 217.424C97.4798 220.362 96.481 226.131 99.4124 230.331C102.344 234.53 108.111 235.521 112.313 232.584C116.515 229.646 117.533 223.854 114.583 219.677Z" fill="#BF2326"/>
<path d="M32.28 38V24.66H28.98L25.34 33.44L21.72 24.66H18.42V38H20.76V28.1L24.84 38H25.84L29.94 28.1V38H32.28ZM43.6792 38V28.34H41.5792V35.12C41.0792 35.78 40.1592 36.38 39.0992 36.38C37.9192 36.38 37.1592 35.92 37.1592 34.42V28.34H35.0592V35.18C35.0592 37.16 36.0792 38.24 38.1592 38.24C39.6792 38.24 40.8792 37.5 41.5792 36.72V38H43.6792ZM49.7069 38.24C52.3069 38.24 53.7269 36.94 53.7269 35.24C53.7269 31.4 47.8869 32.68 47.8869 30.96C47.8869 30.28 48.5869 29.78 49.6869 29.78C50.8869 29.78 51.9669 30.28 52.5469 30.94L53.4269 29.46C52.5469 28.68 51.3069 28.1 49.6669 28.1C47.2269 28.1 45.8669 29.46 45.8669 31.04C45.8669 34.74 51.7069 33.38 51.7069 35.28C51.7069 36.04 51.0669 36.58 49.8069 36.58C48.5469 36.58 47.2069 35.92 46.5269 35.22L45.5669 36.74C46.5669 37.72 48.0669 38.24 49.7069 38.24ZM56.8805 27.16C57.6005 27.16 58.1805 26.58 58.1805 25.86C58.1805 25.14 57.6005 24.56 56.8805 24.56C56.1805 24.56 55.5805 25.14 55.5805 25.86C55.5805 26.58 56.1805 27.16 56.8805 27.16ZM57.9405 38V28.34H55.8405V38H57.9405ZM65.0647 38.24C66.9447 38.24 68.0847 37.44 68.7647 36.52L67.3847 35.24C66.8447 35.98 66.1047 36.38 65.1647 36.38C63.4047 36.38 62.2447 35.04 62.2447 33.16C62.2447 31.28 63.4047 29.96 65.1647 29.96C66.1047 29.96 66.8447 30.34 67.3847 31.1L68.7647 29.82C68.0847 28.9 66.9447 28.1 65.0647 28.1C62.1247 28.1 60.0647 30.24 60.0647 33.16C60.0647 36.1 62.1247 38.24 65.0647 38.24ZM75.6261 38C79.7861 38 82.6061 35.26 82.6061 31.34C82.6061 27.42 79.7861 24.66 75.6261 24.66H70.6661V38H75.6261ZM75.6261 35.94H73.0061V26.72H75.6261C78.6061 26.72 80.2061 28.76 80.2061 31.34C80.2061 33.86 78.5261 35.94 75.6261 35.94ZM96.4253 38V24.66H94.0853V33.92L87.2653 24.66H84.8653V38H87.2053V28.48L94.1653 38H96.4253ZM111.26 38L106.02 24.66H103.1L97.8598 38H100.52L101.5 35.44H107.62L108.6 38H111.26ZM106.96 33.38H102.16L104.56 27.02L106.96 33.38Z" fill="white"/>
</g>
</svg>
